<svg xmlns="http://www.w3.org/2000/svg" viewBox="0 0 69.94 58"><defs><style>.cls-1{fill:#ffdb2b;}.cls-2{fill:#daba6c;}.cls-3{fill:#fff;}.cls-4{fill:#556080;}.cls-5{fill:#fec722;}.cls-6{fill:#e64c3c;}.cls-7{fill:#f09372;}.cls-8{fill:#c03a2b;}.cls-9{fill:#d9b971;}.cls-10{fill:#feda42;}</style></defs><title>Asset 2</title><g id="Layer_2" data-name="Layer 2"><g id="Capa_1" data-name="Capa 1"><path class="cls-1" d="M50,27V50a4.31,4.31,0,0,1-4.18,4H12a4.15,4.15,0,0,1-4-4V27s20.85-.87,27-10C35,17,41.76,31.87,50,27Z"/><path class="cls-2" d="M57.16,44.06c-2.11-4.74-2.81-13.33-3-18.87a23.27,23.27,0,0,0-3.81-12A26.51,26.51,0,0,0,38.42,3.07a24.84,24.84,0,0,0-18.24-.63L23.55,5.8c1.58,1.58,1.68,3.72-.32,4.72l-6.51,1.2L13,7.94l.42-2a21.87,21.87,0,0,0-5.9,6.19c-.16.25-.31.52-.46.78l1-.19,3.77,3.77-1.36,6.44a1.15,1.15,0,0,1-.12.25c-1.12,1.76-3.06,1.51-4.55,0L4.17,21.57A23.16,23.16,0,0,0,4,24.07c-.11,5.48-.62,15.09-2.81,20.16A2.11,2.11,0,0,0,2.26,47c1.08.48,4.24.77,5.74,1V27s20.86-.87,27-10c0,0,6.76,14.87,15,10V48c2-.41,4.74-.59,6-1.08A2.12,2.12,0,0,0,57.16,44.06Z"/><circle class="cls-3" cx="38" cy="33" r="6"/><circle class="cls-4" cx="38" cy="33" r="2"/><circle class="cls-3" cx="20" cy="33" r="6"/><circle class="cls-4" cx="20" cy="33" r="2"/><path class="cls-5" d="M40.22,58H16.83a1.31,1.31,0,0,1-1.31-1.31V54h26v2.69A1.3,1.3,0,0,1,40.22,58Z"/><path class="cls-4" d="M27.62,50.71a9.94,9.94,0,0,1-6.2-2.39,1,1,0,1,1,1.23-1.57,7.67,7.67,0,0,0,5.92,1.89c3.7-.56,6.25-4.17,6.28-4.21a1,1,0,1,1,1.64,1.14c-.12.18-3.05,4.35-7.61,5A7.64,7.64,0,0,1,27.62,50.71Z"/><path class="cls-6" d="M14.32,1.34,13,7.94l3.77,3.78,6.51-1.2c2-1,1.9-3.14.32-4.72L18.94,1.2C17.42-.32,15.4-.52,14.32,1.34Z"/><path class="cls-6" d="M8.05,12.7,1.5,13.87c-2,1-1.9,3.13-.31,4.71l4.6,4.6c1.49,1.49,3.43,1.74,4.55,0a1.15,1.15,0,0,0,.12-.25l1.36-6.44Z"/><path class="cls-7" d="M19.17,8.68a1,1,0,0,0-1.26-.63l-1.7.56L17,7.38A1,1,0,0,0,16.61,6a1,1,0,0,0-1.37.34L13.64,9A1,1,0,0,0,14,10.39l.13,0a1,1,0,0,0,.92.62,1.12,1.12,0,0,0,.31-.05L18.54,10A1,1,0,0,0,19.17,8.68Z"/><path class="cls-7" d="M10.61,13.94a.5.5,0,0,0,0-.13,1,1,0,0,0-1.37-.35l-2.66,1.6A1,1,0,0,0,7,16.92a1.1,1.1,0,0,0,.52-.14L8.79,16l-.57,1.69A1,1,0,0,0,8.85,19a1.25,1.25,0,0,0,.32.05,1,1,0,0,0,.95-.69l1.06-3.19A1,1,0,0,0,10.61,13.94Z"/><rect class="cls-8" x="8.98" y="8.8" width="6.78" height="6.78" transform="translate(-5 12.32) rotate(-45)"/><path class="cls-9" d="M66.18,36.1l3.73-5.4a.19.19,0,0,0,0-.19.19.19,0,0,0-.17-.1H62.31a.19.19,0,0,0-.17.1.19.19,0,0,0,0,.08.2.2,0,0,0,0,.11l3.73,5.4a.18.18,0,0,0,.3,0Z"/><path class="cls-10" d="M66.15,35.12l2.78-4a.12.12,0,0,0,0-.14.13.13,0,0,0-.12-.08H63.24a.13.13,0,0,0-.12.08.14.14,0,0,0,0,.06.11.11,0,0,0,0,.08l2.79,4a.15.15,0,0,0,.11.06A.17.17,0,0,0,66.15,35.12Z"/></g></g></svg>