<?xml version="1.0" encoding="iso-8859-1"?>
<!-- Generator: Adobe Illustrator 16.0.0, SVG Export Plug-In . SVG Version: 6.00 Build 0)  -->
<!DOCTYPE svg PUBLIC "-//W3C//DTD SVG 1.1//EN" "http://www.w3.org/Graphics/SVG/1.1/DTD/svg11.dtd">
<svg xmlns="http://www.w3.org/2000/svg" xmlns:xlink="http://www.w3.org/1999/xlink" version="1.1" id="Capa_1" x="0px" y="0px" width="512px" height="512px" viewBox="0 0 575.312 575.312" style="enable-background:new 0 0 575.312 575.312;" xml:space="preserve">
<g>
	<path d="M573.758,235.593c0,0-75.606-131.666-75.618-131.678c-1.751-2.668-4.762-4.431-8.189-4.431   c-0.281,0-156.537,22.693-156.537,22.693L273.425,11.944c-1.481-3.036-4.578-5.116-8.176-5.116c-1.971,0-3.794,0.636-5.288,1.701   c-0.012,0-221.74,161.421-221.74,161.421c-1.065,0.771-1.934,1.775-2.57,2.925L1.134,235.202c-1.885,3.39-1.383,7.601,1.236,10.453   c1.763,1.91,4.187,2.938,6.659,2.938c1.236,0,2.485-0.257,3.66-0.771l2.252-0.991v225.424c0,3.293,1.799,6.328,4.7,7.907   l158.838,87.051c1.358,0.808,2.95,1.273,4.664,1.273c0.955,0,1.873-0.147,2.754-0.417l179.255-45.251l74.31,22.081   c0,0,2.215,0.624,3.415,0.624c1.334,0,2.619-0.269,3.782-0.759l100.38-44.859c3.256-1.469,5.349-4.688,5.349-8.237V247.001   l12.069,2.46c0.624,0.123,1.224,0.184,1.811,0.184c0.05,0,0.086,0,0.135,0c4.934-0.073,8.911-4.076,8.911-9.021   C575.275,238.751,574.713,237.025,573.758,235.593z M45.871,435.693c0,0.979-0.465,1.897-1.273,2.46   c-0.514,0.367-1.114,0.539-1.726,0.539c-0.355,0-0.71-0.05-1.041-0.172l-12.925-4.761c-1.188-0.441-1.971-1.555-1.971-2.815   v-44.591c0-0.894,0.392-1.75,1.089-2.313c0.698-0.575,1.591-0.808,2.485-0.648l12.925,2.436c1.42,0.257,2.436,1.506,2.436,2.962   V435.693z M45.871,365.313c0,0.845-0.343,1.664-0.979,2.228c-0.551,0.514-1.285,0.783-2.02,0.783c-0.098,0-0.196-0.013-0.282-0.024   l-12.925-1.249c-1.555-0.146-2.729-1.444-2.729-2.998V319.45c0-1.555,1.2-2.864,2.766-2.999l12.938-1.077   c0.844-0.049,1.665,0.232,2.289,0.796c0.612,0.562,0.955,1.37,0.955,2.19v46.953H45.871z M45.871,294.933   c0,1.469-1.04,2.717-2.497,2.974l-12.926,2.24c-0.159,0.024-0.331,0.037-0.501,0.037c-0.71,0-1.383-0.245-1.934-0.71   c-0.686-0.563-1.077-1.408-1.077-2.302v-44.578c0-1.273,0.808-2.412,2.007-2.84l12.925-4.565c0.918-0.318,1.946-0.184,2.754,0.379   c0.796,0.563,1.261,1.481,1.261,2.448v46.917H45.871z M76.238,446.856c0,1.003-0.465,1.909-1.273,2.472   c-0.514,0.343-1.114,0.551-1.726,0.551c-0.355,0-0.71-0.073-1.04-0.208l-16.022-5.887c-1.187-0.429-1.971-1.555-1.971-2.828   v-49.486c0-0.905,0.392-1.75,1.089-2.325c0.686-0.575,1.604-0.796,2.473-0.648l16.034,3.023c1.42,0.257,2.436,1.505,2.436,2.949   V446.856z M76.238,368.275c0,0.845-0.355,1.652-0.979,2.215c-0.563,0.515-1.285,0.784-2.02,0.784c-0.11,0-0.196-0.013-0.281-0.013   l-16.022-1.566c-1.542-0.147-2.717-1.433-2.717-2.986v-49.499c0-1.566,1.2-2.864,2.767-2.999l16.022-1.321   c0.845-0.074,1.677,0.22,2.289,0.771c0.624,0.575,0.967,1.371,0.967,2.228v52.388H76.238z M76.238,289.694   c0,1.469-1.041,2.718-2.485,2.962l-16.034,2.767c-0.171,0.024-0.343,0.037-0.502,0.037c-0.722,0-1.396-0.245-1.934-0.71   c-0.698-0.576-1.077-1.408-1.077-2.302v-49.511c0-1.273,0.796-2.411,2.007-2.827l16.01-5.655c0.918-0.318,1.934-0.184,2.742,0.38   c0.795,0.563,1.261,1.481,1.261,2.46v52.399H76.238z M29.934,220.428l20.539-37.075L237.219,47.379l-6.879,12.276l-53.66,95.766   l-94.016,41.652L29.934,220.428z M114.635,460.993c0,0.979-0.478,1.897-1.273,2.473c-0.514,0.354-1.114,0.538-1.738,0.538   c-0.343,0-0.698-0.061-1.028-0.184l-20.392-7.503c-1.175-0.453-1.958-1.579-1.958-2.84v-55.631c0-0.881,0.392-1.737,1.089-2.301   c0.686-0.575,1.604-0.808,2.473-0.648l20.379,3.831c1.42,0.257,2.448,1.518,2.448,2.962V460.993z M114.635,372.02   c0,0.845-0.355,1.665-0.979,2.24c-0.551,0.502-1.285,0.783-2.032,0.783c-0.098,0-0.184-0.013-0.282-0.024l-20.379-1.995   c-1.542-0.159-2.717-1.444-2.717-2.986v-55.644c0-1.555,1.2-2.852,2.754-2.998l20.38-1.678c0.844-0.073,1.665,0.208,2.276,0.771   c0.625,0.575,0.967,1.371,0.967,2.228v59.303H114.635z M114.635,283.06c0,1.469-1.053,2.717-2.497,2.962l-20.38,3.525   c-0.171,0.024-0.342,0.036-0.501,0.036c-0.722,0-1.396-0.244-1.946-0.71c-0.673-0.575-1.065-1.419-1.065-2.301v-55.631   c0-1.273,0.795-2.411,1.995-2.84l20.392-7.197c0.918-0.318,1.934-0.184,2.742,0.379c0.783,0.563,1.261,1.481,1.261,2.46V283.06z    M164.709,479.414c0,0.979-0.465,1.897-1.285,2.461c-0.514,0.354-1.114,0.526-1.726,0.526c-0.355,0-0.71-0.05-1.04-0.172   l-26.806-9.865c-1.2-0.44-1.971-1.566-1.971-2.815v-63.501c0-0.894,0.392-1.738,1.077-2.313c0.698-0.575,1.604-0.808,2.472-0.648   l26.818,5.043c1.408,0.257,2.436,1.505,2.436,2.949v68.336H164.709z M164.709,376.917c0,0.845-0.355,1.652-0.979,2.228   c-0.563,0.502-1.286,0.783-2.02,0.783c-0.11,0-0.208-0.013-0.281-0.013l-26.818-2.619c-1.53-0.146-2.705-1.444-2.705-2.999v-63.501   c0-1.566,1.2-2.864,2.754-2.998l26.806-2.229c0.845-0.049,1.677,0.233,2.289,0.809c0.624,0.562,0.967,1.37,0.967,2.203v68.336   H164.709z M164.709,274.418c0,1.469-1.041,2.717-2.485,2.962l-26.806,4.627c-0.184,0.024-0.331,0.049-0.514,0.049   c-0.697,0-1.395-0.257-1.934-0.71c-0.686-0.563-1.065-1.407-1.065-2.301v-63.501c0-1.273,0.783-2.411,2.007-2.839l26.793-9.449   c0.918-0.331,1.934-0.184,2.742,0.379c0.795,0.563,1.273,1.481,1.273,2.46v68.324H164.709z M268.259,473.343   c0,1.469-1.065,2.717-2.509,2.974l-61.812,10.466c-0.171,0.036-0.331,0.036-0.502,0.036c-0.697,0-1.395-0.257-1.934-0.697   c-0.686-0.575-1.065-1.42-1.065-2.301v-70.49c0-1.567,1.2-2.864,2.742-2.999l61.812-5.349c0.833-0.086,1.677,0.22,2.301,0.795   c0.612,0.563,0.967,1.371,0.967,2.203V473.343L268.259,473.343z M268.259,375.313c0,1.604-1.273,2.938-2.864,3.011l-61.812,2.778   c-0.049,0-0.098,0-0.146,0c-0.759,0-1.518-0.281-2.069-0.82c-0.6-0.575-0.93-1.346-0.93-2.166v-70.515   c0-0.82,0.331-1.615,0.918-2.179c0.587-0.575,1.383-0.869,2.203-0.845l61.812,2.362c1.604,0.062,2.889,1.384,2.889,3.011V375.313z    M268.259,277.258c0,0.844-0.343,1.64-0.967,2.203c-0.551,0.526-1.285,0.808-2.044,0.808c-0.086,0-0.159,0-0.233,0l-61.812-4.92   c-1.554-0.123-2.766-1.432-2.766-2.999v-70.49c0-0.881,0.379-1.726,1.053-2.301c0.686-0.575,1.566-0.808,2.436-0.673l61.812,10.049   c1.444,0.245,2.521,1.493,2.521,2.962V277.258z M345.764,460.221c0,1.47-1.065,2.718-2.51,2.963l-49.854,8.457   c-0.171,0.024-0.33,0.037-0.489,0.037c-0.722,0-1.396-0.257-1.946-0.697c-0.686-0.575-1.064-1.42-1.064-2.302v-63.072   c0-1.579,1.187-2.877,2.754-2.999l49.841-4.32c0.833-0.074,1.677,0.208,2.302,0.771c0.636,0.575,0.979,1.384,0.979,2.228v58.936   H345.764z M345.764,371.825c0,1.604-1.273,2.938-2.864,2.998l-49.866,2.253c-0.036,0-0.085,0-0.122,0   c-0.771,0-1.53-0.294-2.093-0.82c-0.588-0.575-0.918-1.347-0.918-2.167v-63.072c0-0.82,0.318-1.604,0.918-2.179   c0.587-0.575,1.383-0.869,2.203-0.832l49.854,1.896c1.615,0.062,2.889,1.384,2.889,3.012V371.825L345.764,371.825z    M345.764,283.427c0,0.832-0.343,1.64-0.955,2.203c-0.562,0.514-1.285,0.808-2.056,0.808c-0.074,0-0.159,0-0.245-0.012   l-49.854-3.966c-1.566-0.122-2.767-1.432-2.767-2.999v-63.073c0-0.881,0.38-1.713,1.053-2.289c0.674-0.575,1.566-0.82,2.424-0.685   l49.865,8.103c1.444,0.232,2.521,1.493,2.521,2.975v58.936H345.764z M428.126,531.25c0,0.954-0.44,1.849-1.211,2.424   c-0.526,0.392-1.163,0.6-1.8,0.6c-0.27,0-0.575-0.049-0.856-0.123l-38.63-11.444c-1.285-0.367-2.166-1.554-2.166-2.876V397.516   c0-0.845,0.343-1.652,0.979-2.228c0.624-0.575,1.456-0.856,2.301-0.771l38.629,3.464c1.555,0.147,2.755,1.457,2.755,2.999   L428.126,531.25L428.126,531.25z M420.819,201.75l-49.584-10.123l-28.617-52.559l129.658-18.886L420.819,201.75z M493.39,435.215   c0,1.469-1.064,2.718-2.509,2.962l-30.832,5.239c-0.172,0.024-0.331,0.036-0.502,0.036c-0.71,0-1.396-0.257-1.935-0.71   c-0.686-0.575-1.077-1.407-1.077-2.301v-49.241c0-1.567,1.212-2.877,2.754-2.999l30.845-2.669c0.833-0.073,1.678,0.209,2.289,0.771   c0.612,0.575,0.979,1.371,0.979,2.228v46.684H493.39z M493.39,365.178c0,1.615-1.272,2.949-2.876,3.011l-30.832,1.383   c-0.062,0-0.099,0-0.147,0c-0.771,0-1.518-0.293-2.081-0.819c-0.587-0.575-0.93-1.347-0.93-2.167v-49.241   c0-0.82,0.343-1.591,0.93-2.167c0.588-0.575,1.371-0.893,2.191-0.856l30.845,1.175c1.615,0.074,2.9,1.396,2.9,3.023V365.178z    M493.39,295.166c0,0.845-0.354,1.64-0.979,2.215c-0.551,0.526-1.285,0.809-2.032,0.809c-0.086,0-0.171,0-0.245-0.013   l-30.845-2.448c-1.554-0.122-2.778-1.432-2.778-2.998v-49.254c0-0.881,0.392-1.713,1.065-2.289c0.686-0.563,1.566-0.82,2.436-0.673   l30.82,5.006c1.456,0.232,2.533,1.493,2.533,2.974v46.671H493.39z M534.052,428.324c0,1.47-1.065,2.718-2.51,2.963l-26.426,4.479   c-0.159,0.024-0.331,0.037-0.49,0.037c-0.722,0-1.407-0.258-1.945-0.723c-0.686-0.575-1.065-1.407-1.065-2.301v-45.496   c0-1.566,1.199-2.864,2.754-2.999l26.427-2.301c0.844-0.073,1.677,0.22,2.301,0.783c0.624,0.562,0.967,1.371,0.967,2.215v43.342   H534.052z M534.052,363.354c0,1.604-1.261,2.938-2.864,2.999l-26.427,1.199c-0.049,0-0.098,0-0.135,0   c-0.771,0-1.529-0.306-2.093-0.819c-0.587-0.575-0.918-1.359-0.918-2.179v-45.521c0-0.82,0.331-1.592,0.918-2.154   c0.588-0.563,1.371-0.894,2.203-0.833l26.427,1.004c1.628,0.073,2.889,1.396,2.889,3.023V363.354z M534.052,298.397   c0,0.832-0.343,1.64-0.967,2.215c-0.551,0.515-1.286,0.796-2.032,0.796c-0.086,0-0.172,0-0.245-0.024l-26.426-2.093   c-1.566-0.123-2.778-1.433-2.778-2.999v-45.496c0-0.881,0.379-1.726,1.064-2.289c0.673-0.575,1.555-0.82,2.424-0.686l26.426,4.296   c1.457,0.232,2.521,1.493,2.521,2.974v43.306H534.052z" fill="#feda42"/>
</g>
<g>
</g>
<g>
</g>
<g>
</g>
<g>
</g>
<g>
</g>
<g>
</g>
<g>
</g>
<g>
</g>
<g>
</g>
<g>
</g>
<g>
</g>
<g>
</g>
<g>
</g>
<g>
</g>
<g>
</g>
</svg>
