<?xml version="1.0" encoding="iso-8859-1"?>
<!-- Generator: Adobe Illustrator 19.0.0, SVG Export Plug-In . SVG Version: 6.00 Build 0)  -->
<svg version="1.1" id="Capa_1" xmlns="http://www.w3.org/2000/svg" xmlns:xlink="http://www.w3.org/1999/xlink" x="0px" y="0px"
	 viewBox="0 0 403.6 403.6" style="enable-background:new 0 0 403.6 403.6;" xml:space="preserve">
<path style="fill:#00A9FF;" d="M360,140.8c-10.8,0.4-40.4-16.4-40.4-16.4c-9.6-7.2-19.6-14.8-39.2-14.8s-29.2,7.2-39.2,14.8
	c0,0-27.2,17.2-37.6,17.2c-11.2,0-40.8-17.2-40.8-17.2c-9.6-7.2-19.2-14.4-38.8-14.4c-19.2,0-29.2,7.2-38.8,14.4
	c0,0-29.6,16-40.4,16c-10.4,0-38.8-16-38.8-16c0.4,0,0.4,0.4,0.8,0.4H5.6V294h390.8V124.4C396.8,124.4,370,140.8,360,140.8z"/>
<path style="fill:#000012;" d="M402.8,210.4v-86c0-3.6-2.8-6.4-6.4-6.4c-2.4,0-4.4,1.2-5.2,3.2c-8,6-16.4,11.6-32.8,11.6
	c-17.6,0-25.6-6.4-35.2-13.6c-10-7.6-21.2-16-42.8-16c-21.6,0-32.8,8.4-42.8,16c-9.6,7.2-18,13.6-35.2,13.6
	c-17.6,0-25.6-6.4-35.2-13.6c-10-7.6-21.2-16-42.8-16s-32.8,8.4-42.8,16c-9.6,7.2-18,13.6-35.2,13.6c-17.6,0-25.6-6.4-35.2-13.6
	l-0.8-0.4c-2.8-2-6.8-1.6-8.8,1.2c0,0,0,0.4-0.4,0.4C0.4,121.6,0,122.8,0,124v170c0,3.6,2.8,6.4,6.4,6.4h390.8
	c3.6,0,6.4-2.8,6.4-6.4v-81.6C403.2,212,402.8,211.2,402.8,210.4z M12,180.4c8,4.8,18,9.2,32.8,9.2c21.6,0,32.8-8.4,42.8-16
	c9.6-7.2,18-13.6,35.2-13.6c17.6,0,25.6,6.4,35.2,13.6c10,7.6,21.2,16,42.8,16s32.8-8.4,42.8-16c9.6-7.2,18-13.6,35.2-13.6
	c17.6,0,25.6,6.4,35.2,13.6c10,7.6,21.2,16,42.8,16c14.8,0,24.8-4,32.8-9.2v28c-8.4,6.4-16.8,11.6-32.8,11.6
	c-17.6,0-25.6-6.4-35.2-13.6c-10-7.6-21.2-16-42.8-16c-21.6,0-32.8,8.4-42.8,16c-9.6,7.2-18,13.6-35.2,13.6
	c-17.6,0-25.6-6.4-35.2-13.6c-10-7.6-21.2-16-42.8-16s-32.8,8.4-42.8,16c-9.6,7.2-18,13.6-35.2,13.6c-16,0-24.4-5.2-33.2-11.6v-28
	H12z M88.8,129.6c9.6-7.2,18-13.6,35.2-13.6c17.6,0,25.6,6.4,35.2,13.6c10,7.6,21.2,16,42.8,16c21.6,0,32.8-8.4,42.8-16
	c9.6-7.2,18-13.6,35.2-13.6c17.6,0,25.6,6.4,35.2,13.6c10,7.6,21.2,16,42.8,16c14.4,0,24-4,32-8.4v28c-8.8,6.4-16.8,11.6-32.8,11.6
	c-17.6,0-25.6-6.4-35.2-13.6c-10-7.6-21.2-16-42.8-16c-21.6,0-32.8,8.4-42.8,16c-9.6,7.2-18,13.6-35.2,13.6
	c-17.6,0-25.6-6.4-35.2-13.6c-10-7.6-21.2-16-42.8-16s-32.8,8.4-42.8,16c-9.6,7.2-18,13.6-35.2,13.6c-16,0-24.4-5.2-32.8-11.6v-29.6
	c8,5.2,18.4,9.6,34,9.6C67.6,145.6,78.8,137.2,88.8,129.6z M12,288v-64.8c8,5.2,18,9.2,33.2,9.2c21.6,0,32.8-8.4,42.8-16
	c9.6-7.2,18-13.6,35.2-13.6c17.6,0,25.6,6.4,35.2,13.6c10,7.6,21.2,16,42.8,16s32.8-8.4,42.8-16c9.6-7.2,18-13.6,35.2-13.6
	c17.6,0,25.6,6.4,35.2,13.6c10,7.6,21.2,16,42.8,16c14.8,0,24.8-4,32.8-8.8V288L12,288L12,288z"/>
<g>
</g>
<g>
</g>
<g>
</g>
<g>
</g>
<g>
</g>
<g>
</g>
<g>
</g>
<g>
</g>
<g>
</g>
<g>
</g>
<g>
</g>
<g>
</g>
<g>
</g>
<g>
</g>
<g>
</g>
</svg>
