<?xml version="1.0" encoding="iso-8859-1"?>
<!-- Generator: Adobe Illustrator 16.0.0, SVG Export Plug-In . SVG Version: 6.00 Build 0)  -->
<!DOCTYPE svg PUBLIC "-//W3C//DTD SVG 1.1//EN" "http://www.w3.org/Graphics/SVG/1.1/DTD/svg11.dtd">
<svg version="1.1" id="Capa_1" xmlns="http://www.w3.org/2000/svg" xmlns:xlink="http://www.w3.org/1999/xlink" x="0px" y="0px"
	 width="575.301px" height="575.301px" viewBox="0 0 575.301 575.301" style="enable-background:new 0 0 575.301 575.301;"
	 xml:space="preserve">
<g>
	<path d="M435.24,164.124L358.116,4.734c0,0-1.273-2.95-4.529-4.161c-4.015-1.481-6.866,0.379-6.866,0.379L186.988,83.805
		c-1.444,0.747-2.632,1.897-3.439,3.317l-43.244,76.537c-1.812,3.207-1.31,7.222,1.224,9.89c1.616,1.713,3.831,2.607,6.071,2.607
		c1.273,0,2.546-0.282,3.746-0.881l1.236-0.612v344.751c0,3.488,2.167,6.61,5.435,7.846L284.7,574.774c0,0,1.579,0.526,2.938,0.526
		c1.371,0,2.938-0.526,2.938-0.526l126.695-47.516c3.269-1.235,5.435-4.345,5.435-7.846V174.638l1.249,0.624
		c1.188,0.6,2.473,0.881,3.745,0.881c2.154,0,4.284-0.833,5.888-2.411C436.133,171.21,436.806,167.342,435.24,164.124z
		 M343.538,64.943c2.742,0,5.545,0.894,8.36,2.644c10.71,6.695,19.094,25.129,19.094,41.959c0,14.223-6.095,23.77-15.178,23.77
		c-2.166,0-4.406-0.563-6.646-1.689c-11.457-5.729-20.771-24.97-20.771-42.901C328.397,74.49,334.48,64.943,343.538,64.943z
		 M352.644,220.134c-0.489,0.355-1.064,0.551-1.652,0.551c-0.281,0-0.551-0.037-0.82-0.123l-40.648-12.521
		c-1.175-0.355-1.971-1.444-1.971-2.668v-64.187c0-0.942,0.478-1.824,1.272-2.338c0.796-0.514,1.787-0.6,2.645-0.22l40.648,17.785
		c1.017,0.453,1.677,1.457,1.677,2.57v58.911C353.783,218.787,353.367,219.607,352.644,220.134z M353.208,247.478v59.168
		c0,0.808-0.343,1.579-0.942,2.105c-0.515,0.452-1.176,0.697-1.849,0.697c-0.122,0-0.232,0-0.343-0.024L310,304.418
		c-1.396-0.184-2.448-1.359-2.448-2.767v-64.198c0-0.857,0.392-1.677,1.077-2.203c0.673-0.539,1.555-0.722,2.398-0.514
		l40.074,10.012C352.338,245.079,353.208,246.205,353.208,247.478z M209.889,479.756c0,0.856-0.392,1.677-1.077,2.203
		c-0.502,0.379-1.102,0.588-1.713,0.588c-0.221,0-0.453-0.037-0.673-0.086l-31.836-7.956c-1.249-0.306-2.117-1.42-2.117-2.705
		v-52.975c0-0.808,0.343-1.579,0.942-2.105s1.408-0.759,2.191-0.673l31.836,3.966c1.395,0.184,2.448,1.358,2.448,2.778V479.756
		L209.889,479.756z M209.889,394.309c0,0.759-0.318,1.505-0.881,2.031c-0.526,0.49-1.212,0.759-1.909,0.759
		c-0.062,0-0.123,0-0.171-0.012l-31.836-1.995c-1.469-0.086-2.619-1.298-2.619-2.778v-52.975c0-1.493,1.15-2.705,2.619-2.804
		l31.836-1.982c0.759-0.037,1.53,0.221,2.081,0.746c0.563,0.539,0.881,1.273,0.881,2.045V394.309z M209.889,308.873
		c0,1.407-1.041,2.607-2.448,2.778l-31.836,3.979c-0.11,0.012-0.232,0.024-0.343,0.024c-0.686,0-1.334-0.257-1.848-0.71
		c-0.6-0.526-0.942-1.285-0.942-2.081v-52.986c0-1.285,0.869-2.399,2.117-2.717l31.836-7.956c0.833-0.208,1.713-0.024,2.387,0.514
		c0.686,0.526,1.077,1.334,1.077,2.203V308.873z M209.889,223.451c0,1.224-0.795,2.301-1.958,2.668l-31.836,9.939
		c-0.27,0.085-0.551,0.134-0.833,0.134c-0.587,0-1.175-0.184-1.652-0.551c-0.722-0.526-1.138-1.358-1.138-2.252v-52.975
		c0-1.102,0.661-2.105,1.677-2.558l31.836-13.917c0.857-0.38,1.861-0.294,2.644,0.22c0.795,0.514,1.261,1.383,1.261,2.326V223.451z
		 M267.748,494.211c0,0.857-0.392,1.677-1.065,2.203c-0.501,0.38-1.102,0.575-1.726,0.575c-0.232,0-0.453-0.036-0.673-0.073
		l-40.074-10.012c-1.249-0.307-2.118-1.433-2.118-2.718v-59.181c0-0.783,0.343-1.554,0.955-2.093c0.6-0.526,1.395-0.771,2.191-0.686
		l40.074,5.019c1.395,0.172,2.448,1.358,2.448,2.778v64.187H267.748z M267.748,397.919c0,0.771-0.318,1.506-0.881,2.032
		c-0.514,0.502-1.199,0.759-1.909,0.759c-0.061,0-0.11,0-0.171,0l-40.074-2.51c-1.481-0.098-2.62-1.31-2.62-2.79v-59.168
		c0-1.481,1.151-2.705,2.62-2.791l40.074-2.51c0.759-0.049,1.53,0.221,2.081,0.747c0.563,0.526,0.881,1.272,0.881,2.044V397.919z
		 M265.312,304.418l-40.086,5.006c-0.123,0.024-0.233,0.024-0.343,0.024c-0.673,0-1.334-0.245-1.848-0.697
		c-0.6-0.526-0.955-1.285-0.955-2.105v-59.167c0-1.273,0.869-2.399,2.118-2.705l40.074-10.013c0.833-0.208,1.713-0.024,2.399,0.514
		c0.673,0.526,1.065,1.334,1.065,2.203v64.198C267.76,303.06,266.707,304.234,265.312,304.418z M222.092,217.894v-59.168
		c0-1.102,0.661-2.105,1.677-2.558l40.074-17.528c0.856-0.379,1.86-0.293,2.644,0.22c0.783,0.514,1.261,1.396,1.261,2.338v64.187
		c0,1.224-0.783,2.301-1.958,2.668l-40.074,12.509c-0.269,0.086-0.551,0.135-0.832,0.135c-0.588,0-1.175-0.184-1.652-0.551
		C222.509,219.62,222.092,218.787,222.092,217.894z M282.007,91.197l-113.624,56.818l28.519-50.49l127.051-65.9l-8.274,11.75
		L282.007,91.197z M310.343,400.722c-0.71,0-1.396-0.257-1.91-0.759c-0.562-0.526-0.881-1.261-0.881-2.031v-64.187
		c0-0.759,0.318-1.506,0.881-2.044c0.563-0.515,1.31-0.796,2.081-0.747l40.074,2.509c1.469,0.074,2.619,1.298,2.619,2.791v59.168
		c0,1.469-1.15,2.693-2.619,2.791l-40.074,2.509C310.453,400.722,310.392,400.722,310.343,400.722z M387.479,530.515
		c0,1.163-0.722,2.216-1.812,2.62l-53.501,20.061c-0.318,0.123-0.648,0.184-0.979,0.184c-0.563,0-1.114-0.184-1.592-0.501
		c-0.759-0.515-1.199-1.371-1.199-2.302V427.418c0-1.408,1.053-2.607,2.448-2.779l53.501-6.695c0.795-0.098,1.591,0.147,2.19,0.686
		c0.6,0.526,0.942,1.298,0.942,2.094V530.515L387.479,530.515z M402.816,392.325c0,1.469-1.138,2.693-2.619,2.778l-31.836,1.995
		c-0.062,0.013-0.123,0.013-0.172,0.013c-0.71,0-1.396-0.27-1.909-0.759c-0.563-0.526-0.882-1.273-0.882-2.032v-56.952
		c0-0.771,0.318-1.493,0.882-2.044c0.562-0.526,1.31-0.784,2.093-0.747l31.824,1.982c1.469,0.099,2.619,1.311,2.619,2.804V392.325z
		 M402.816,312.876c0,0.783-0.343,1.554-0.942,2.08c-0.514,0.453-1.175,0.71-1.849,0.71c-0.109,0-0.232-0.012-0.342-0.024
		l-31.837-3.978c-1.396-0.172-2.448-1.359-2.448-2.778v-56.953c0-0.857,0.404-1.677,1.077-2.203
		c0.674-0.526,1.567-0.722,2.399-0.514l31.836,7.956c1.249,0.306,2.118,1.432,2.118,2.717v52.987H402.816z M402.816,233.39
		c0,0.894-0.416,1.726-1.138,2.252c-0.478,0.355-1.065,0.551-1.653,0.551c-0.281,0-0.562-0.037-0.832-0.134l-31.836-9.939
		c-1.163-0.367-1.959-1.444-1.959-2.668v-56.953c0-0.943,0.478-1.824,1.273-2.326c0.783-0.514,1.787-0.6,2.644-0.22l31.837,13.917
		c1.016,0.453,1.677,1.457,1.677,2.559v52.962H402.816z"/>
</g>
<g>
</g>
<g>
</g>
<g>
</g>
<g>
</g>
<g>
</g>
<g>
</g>
<g>
</g>
<g>
</g>
<g>
</g>
<g>
</g>
<g>
</g>
<g>
</g>
<g>
</g>
<g>
</g>
<g>
</g>
</svg>
