<svg xmlns="http://www.w3.org/2000/svg" viewBox="0 0 496.16 496.15"><defs><style>.cls-1{fill:#009bd4;}.cls-2{fill:#fff;}</style></defs><title>Asset 1</title><g id="Layer_2" data-name="Layer 2"><g id="Layer_1-2" data-name="Layer 1"><path class="cls-1" d="M0,248.08C0,111.06,111.07,0,248.07,0S496.16,111.06,496.16,248.08,385.09,496.15,248.07,496.15,0,385.08,0,248.08Z"/><rect class="cls-2" x="125.77" y="232.26" width="244.62" height="159.85"/><path class="cls-2" d="M341.8,332.22a14,14,0,0,1-14-14v-136a79.76,79.76,0,1,0-159.51,0,14,14,0,1,1-27.92,0,107.68,107.68,0,1,1,215.36,0v136A14,14,0,0,1,341.8,332.22Z"/><path class="cls-1" d="M274.72,301.35a26.64,26.64,0,1,0-41.15,22.34v11.45a14.51,14.51,0,1,0,29,0V323.69A26.61,26.61,0,0,0,274.72,301.35Z"/></g></g></svg>